<?xml version="1.0" encoding="utf-8"?>
<!-- Generator: Adobe Illustrator 27.0.0, SVG Export Plug-In . SVG Version: 6.00 Build 0)  -->
<svg version="1.1" id="Layer_1" xmlns="http://www.w3.org/2000/svg" xmlns:xlink="http://www.w3.org/1999/xlink" x="0px" y="0px"
	 viewBox="0 0 117.8 118.3" style="enable-background:new 0 0 117.8 118.3;" xml:space="preserve">
<style type="text/css">
	.st0{fill:#FFFFFF;}
	.st1{fill:#45D501;}
</style>
<path class="st0" d="M4.2,68.5C4,66.7,3.6,65,3.6,63.2c0-3.6-0.2-7.2,0.2-10.8c0.6-4.9,1.8-9.7,3.8-14.3c2.1-5,4.8-9.6,8.1-13.8
	c5.4-6.7,12-11.8,19.8-15.5c4.9-2.3,10-3.8,15.4-4.6c4.6-0.7,9.2-0.7,13.8-0.2c6.6,0.7,12.8,2.5,18.7,5.4c6.1,3,11.3,7.1,16,12
	c4.4,4.7,7.9,10,10.3,16c1.2,3,2,6.2,2.9,9.3c1.5,5.3,1.6,10.8,1.4,16.3c0,1.1-0.2,2.1-0.4,3.2c-0.1,0.2-0.6,0.6-0.9,0.5
	c-6-0.9-12-2.2-18-2.8c-8.2-0.8-16.4-1.3-24.6-1.8c-8.7-0.6-17.5-0.2-26.2,0.3c-5.5,0.3-11,0.8-16.4,1.5C21.9,64.9,16.4,66,10.8,67
	C8.7,67.4,6.5,68,4.2,68.5L4.2,68.5z"/>
<path class="st0" d="M60.7,114.7c-14.7-0.1-26.1-4-36.1-11.9C17.7,97.5,12.4,90.9,8.9,83c-1.6-3.6-2.7-7.3-3.9-11
	c-0.1-0.2,0.3-0.9,0.5-0.9c4-0.9,7.9-1.9,11.9-2.7c0.5-0.1,1.2,0.4,1.5,0.8c2.4,3.5,4.8,7.1,7.2,10.6c0.3,0.5,0.7,1,1,1.5
	c0.7,1,1.1,0.9,1.7-0.1c2.7-4.8,5.4-9.5,8.1-14.3c0.3-0.5,1-1.1,1.5-1.1c6.5-0.4,12.9-0.8,19.3-0.9c6.1-0.1,12.2,0.2,18.3,0.4
	c1.5,0,3,0.2,4.5,0.3c0.8,0.1,1.3,0.4,1.8,1.2c3.1,5,6.2,9.9,9.3,14.9c0.5,0.8,1,0.8,1.5-0.2c1.3-2.3,2.6-4.7,3.9-7
	c1.1-1.9,2.1-3.8,3.2-5.8c0.4-0.7,0.8-0.9,1.7-0.8c3.4,0.6,6.8,1.2,10.2,1.7c0.7,0.1,1.1,0.4,0.9,1.2c-1.1,4.4-2.4,8.6-4.3,12.7
	c-4.4,9-10.7,16.4-19.1,22c-5,3.3-10.3,5.8-16.1,7.4C68.7,114.1,63.8,114.8,60.7,114.7L60.7,114.7z"/>
<path class="st1" d="M97.7,67.4c-2,4-3.9,7.8-5.9,11.8c-2.6-4.5-5.2-8.8-7.8-13.3C88.6,66.4,93.1,66.9,97.7,67.4z"/>
<path class="st1" d="M35.4,66.1c-2.4,4.5-4.7,8.7-7,13c-2.1-3.8-4.1-7.5-6.2-11.4C26.6,67.2,30.9,66.7,35.4,66.1z"/>
</svg>
