<?xml version="1.0" encoding="UTF-8"?>
<svg id="a" data-name="Layer 1" xmlns="http://www.w3.org/2000/svg" viewBox="0 0 253.58 252.5">
  <g id="b" data-name="T">
    <path id="c" data-name="path35" d="M126.81,252.5L162.28,52.98c33.82,0,44.48,3.71,46.02,18.84,0,0,22.68-8.46,34.13-25.64-44.65-20.69-89.51-21.62-89.51-21.62l-26.18,31.88h.06s-26.18-31.89-26.18-31.89c0,0-44.86,.93-89.5,21.62,11.43,17.18,34.12,25.64,34.12,25.64,1.55-15.14,12.2-18.84,45.79-18.87l35.76,199.55"/>
    <path id="d" data-name="path37" d="M126.79,15.36c36.09-.28,77.4,5.58,119.69,24.01,5.65-10.17,7.11-14.67,7.11-14.67C207.36,6.42,164.07,.16,126.79,0,89.51,.16,46.22,6.42,0,24.71c0,0,2.06,5.54,7.1,14.67C49.38,20.94,90.7,15.08,126.79,15.36h0"/>
  </g>
</svg>