<?xml version="1.0" encoding="UTF-8"?>
<svg id="a" data-name="Layer 1" xmlns="http://www.w3.org/2000/svg" viewBox="0 0 181.44 30.38">
  <path d="M98.02,3.64h3.9l-8.5,9.7,10,13.3h-7.9l-6.1-8-7,8h-3.9l9.1-10.4-9.6-12.6h8.1l5.6,7.3,6.3-7.3Zm-1.2,21h2.2l-14.4-19h-2.4l14.6,19Z"/>
  <g style="isolation: isolate;">
    <path d="M10.55,5.54h2.66v3.46h-2.66l-.07,11.52,2.63-.79v1.76c0,.58-.16,1.09-.49,1.53-.32,.44-.76,.75-1.31,.92l-.83,.25-.04,5.9h-3.6l.04-4.75-6.19,1.94v-3.74l6.19-1.91,.07-12.64H3.96l-.72,9.47H0L1.3,1.51h3.24l-.32,4.03h2.74l.04-5.36h3.6l-.04,5.36Zm20.09,10.94h1.69v3.2h-1.69v7.88c0,.72-.24,1.32-.72,1.8-.48,.48-1.08,.72-1.8,.72h-5.33v-3.2h3.17c.26,0,.48-.09,.65-.27,.17-.18,.25-.39,.25-.63v-6.3H14.58v-3.2h12.28v-1.94h3.78v1.94Zm-5-6.91h6.7v3.2H14.69v-3.2h7.13v-3.96h-6.34V2.45h6.34V.22h3.82V2.45h5.9v3.17h-5.9v3.96Zm-10.15,11.99h3.71l2.45,5.54h-3.82l-2.34-5.54Z"/>
    <path d="M39.92,18.36h3.92l-2.7,9.79c-.12,.58-.41,1.04-.86,1.4-.46,.36-.98,.54-1.58,.54h-1.87l3.1-11.74Zm3.67-6.12v4.14l-6.52-3.49v-4.07l6.52,3.42Zm.72-8.46V7.88l-6.52-3.6V.22l6.52,3.56Zm24.8-.11l-19.22,1.01V22.25c0,.41-.06,.89-.18,1.44l-1.73,6.41h-3.85l1.91-6.98c.07-.29,.11-.6,.11-.94V1.4L69.12,.22V3.67Zm-12.26,7.87c-.16,.16-.23,.34-.23,.56v13.18l4.32-1.26,.04,3.67-9.32,2.48v-3.64l1.33-.4V10.4c0-.62,.2-1.15,.59-1.58s.91-.67,1.53-.72l13.46-1.08v3.31l-5.69,.47,1.76,5.36,4.07-1.94v3.81l-2.95,1.51,3.49,10.55h-3.74l-6.3-18.97-1.84,.14c-.19,.02-.37,.11-.52,.27Z"/>
    <path d="M117.25,3.38h5.22v3.17h-5.9l-.58,2.74h5.83v3.17h-3.46v2.88h4.1v3.24h-4.1v5.54l3.67-1.69v2.16c0,.5-.13,.96-.4,1.37-.26,.41-.62,.72-1.08,.94l-7.52,3.49v-3.82l1.51-.68v-7.31h-2.52v-3.24h2.52v-2.88h-2.95L114.05,.25h3.85l-.65,3.13Zm26.86,23v3.92l-10.08-4.86-10.51,4.82v-3.78l8.57-3.96V13.43h3.67v8.96l8.35,4Zm-16.2-3.49h-3.71V7.16h7.81V.25h3.78V7.16h5.29c.72,0,1.32,.24,1.8,.72s.72,1.08,.72,1.8v13.21h-3.71V11.2c0-.24-.08-.44-.23-.61-.16-.17-.35-.25-.59-.25h-11.16v12.56Zm2.09-16.7h-3.67l-2.02-5.65h3.71l1.98,5.65Zm13.93-5.65l-2.34,5.65h-3.74l2.27-5.65h3.82Z"/>
    <path d="M154.69,3.38h5.69v3.24h-6.55l-.68,2.48h6.3v3.24h-3.96v2.99h4.43v3.31h-4.43v4.82l4.68-2.27v2.34c0,.48-.13,.92-.38,1.31-.25,.4-.59,.7-1.03,.92l-8.82,4.28v-3.89l1.69-.83v-6.7h-2.59v-3.31h2.59v-2.99h-3.06l3.17-12.1h3.82l-.86,3.13Zm16.88-3.38l9.86,5.58v4l-9.86-5.58-10.01,5.47v-3.89l10.01-5.58Zm8.68,15.75c.34,.37,.5,.83,.5,1.39s-.12,1-.36,1.4l-4.28,7.85,3.2,.54v3.35l-16.34-2.63v-3.46l9.29,1.55,4.07-7.24h-14v-3.31h16.42c.67,0,1.18,.19,1.51,.56Zm-8.24-8.15l2.74,5.65h-4l-2.7-5.65h3.96Z"/>
  </g>
</svg>